HIERARCHY
ROOT Hips
{
	OFFSET 0.000000 0.000000 0.000000
	CHANNELS 6 Xposition Yposition Zposition Xrotation Yrotation Zrotation
	JOINT LeftUpLeg_virtual
	{
		OFFSET 0.000000 0.000000 0.000000
		CHANNELS 3 Xrotation Yrotation Zrotation
		JOINT LeftUpLeg
		{
			OFFSET 13.026900 -6.336304 -1.092800
			CHANNELS 3 Xrotation Yrotation Zrotation
			JOINT LeftLeg
			{
				OFFSET 0.524474 -46.096886 9.782700
				CHANNELS 3 Xrotation Yrotation Zrotation
				JOINT LeftFoot
				{
					OFFSET -0.524474 -53.427422 -12.948200
					CHANNELS 3 Xrotation Yrotation Zrotation
					JOINT LeftToeBase
					{
						OFFSET 0.192200 -14.009700 16.364100
						CHANNELS 3 Xrotation Yrotation Zrotation
						JOINT LeftToe_End
						{
							OFFSET -1.784700 -0.561700 9.474800
							CHANNELS 3 Xrotation Yrotation Zrotation
							End Site
							{
								OFFSET 0 0 0
							}
						}
					}
				}
			}
		}
	}
	JOINT RightUpLeg_virtual
	{
		OFFSET 0.000000 0.000000 0.000000
		CHANNELS 3 Xrotation Yrotation Zrotation
		JOINT RightUpLeg
		{
			OFFSET -12.883000 -6.336304 -1.092800
			CHANNELS 3 Xrotation Yrotation Zrotation
			JOINT RightLeg
			{
				OFFSET -0.524587 -46.096825 9.782800
				CHANNELS 3 Xrotation Yrotation Zrotation
				JOINT RightFoot
				{
					OFFSET 0.524587 -53.427383 -12.948300
					CHANNELS 3 Xrotation Yrotation Zrotation
					JOINT RightToeBase
					{
						OFFSET -0.192200 -14.009700 16.364100
						CHANNELS 3 Xrotation Yrotation Zrotation
						JOINT RightToe_End
						{
							OFFSET 1.784700 -0.561700 9.474800
							CHANNELS 3 Xrotation Yrotation Zrotation
							End Site
							{
								OFFSET 0 0 0
							}
						}
					}
				}
			}
		}
	}
	JOINT Spine_virtual
	{
		OFFSET 0.000000 0.000000 0.000000
		CHANNELS 3 Xrotation Yrotation Zrotation
		JOINT Spine
		{
			OFFSET 0.072000 7.257294 -0.789700
			CHANNELS 3 Xrotation Yrotation Zrotation
			JOINT Spine1
			{
				OFFSET 0.000000 12.508769 -0.658067
				CHANNELS 3 Xrotation Yrotation Zrotation
				JOINT Spine1_split
				{
					OFFSET 0.000000 12.508769 -0.658067
					CHANNELS 3 Xrotation Yrotation Zrotation
					JOINT Spine2
					{
						OFFSET 0.000000 12.508769 -0.658067
						CHANNELS 3 Xrotation Yrotation Zrotation
						JOINT Neck_virtual
						{
							OFFSET 0.000000 0.000000 0.000000
							CHANNELS 3 Xrotation Yrotation Zrotation
							JOINT Neck
							{
								OFFSET 0.000000 14.033295 7.520400
								CHANNELS 3 Xrotation Yrotation Zrotation
								JOINT Head
								{
									OFFSET 0.000000 8.198502 5.703100
									CHANNELS 3 Xrotation Yrotation Zrotation
									JOINT HeadTop_End
									{
										OFFSET 0.000000 17.760803 13.332701
										CHANNELS 3 Xrotation Yrotation Zrotation
										End Site
										{
											OFFSET 0 0 0
										}
									}
								}
							}
						}
						JOINT LeftShoulder_virtual
						{
							OFFSET 0.000000 0.000000 0.000000
							CHANNELS 3 Xrotation Yrotation Zrotation
							JOINT LeftShoulder
							{
								OFFSET 6.292450 5.785301 -0.669000
								CHANNELS 3 Xrotation Yrotation Zrotation
								JOINT LeftShoulder_split
								{
									OFFSET 6.292450 5.785301 -0.669000
									CHANNELS 3 Xrotation Yrotation Zrotation
									JOINT LeftArm
									{
										OFFSET 13.907140 -6.093903 1.965100
										CHANNELS 3 Xrotation Yrotation Zrotation
										JOINT LeftForeArm
										{
											OFFSET 34.140198 0.000000 0.000000
											CHANNELS 3 Xrotation Yrotation Zrotation
											JOINT LeftHand
											{
												OFFSET 40.960209 0.000000 0.000000
												CHANNELS 3 Xrotation Yrotation Zrotation
												End Site
												{
													OFFSET 0 0 0
												}
											}
										}
									}
								}
							}
						}
						JOINT RightShoulder_virtual
						{
							OFFSET 0.000000 0.000000 0.000000
							CHANNELS 3 Xrotation Yrotation Zrotation
							JOINT RightShoulder
							{
								OFFSET -6.292450 5.785301 -0.669000
								CHANNELS 3 Xrotation Yrotation Zrotation
								JOINT RightShoulder_split
								{
									OFFSET -6.292450 5.785301 -0.669000
									CHANNELS 3 Xrotation Yrotation Zrotation
									JOINT RightArm
									{
										OFFSET -13.907140 -6.093903 1.965100
										CHANNELS 3 Xrotation Yrotation Zrotation
										JOINT RightForeArm
										{
											OFFSET -34.140198 0.000000 0.000000
											CHANNELS 3 Xrotation Yrotation Zrotation
											JOINT RightHand
											{
												OFFSET -40.960209 0.000000 0.000000
												CHANNELS 3 Xrotation Yrotation Zrotation
												End Site
												{
													OFFSET 0 0 0
												}
											}
										}
									}
								}
							}
						}
					}
				}
			}
		}
	}
}
MOTION
Frames: 8
Frame Time: 0.03333333
-27.958313 163.309814 37.972507 0.000000 0.000000 0.000000 6.334595 -17.029687 0.971314 -18.238799 6.165821 6.152237 26.378957 12.168488 5.842809 21.918091 -2.128169 0.647895 2.440804 0.724471 0.259692 0.000000 0.000000 0.000000 6.126802 -17.061772 0.289625 -7.277280 -3.890295 -2.345650 12.430403 -15.229020 0.558745 29.645958 -1.642432 -5.190193 13.219607 -2.686933 0.826193 0.000000 0.000000 0.000000 6.136349 -15.896596 0.399085 0.001142 4.036156 4.433016 -5.227376 1.258177 -1.628100 2.214108 -2.449550 0.422581 0.000000 0.000000 0.000000 -0.788771 1.295690 -2.387025 -27.886679 2.224843 -0.388149 -7.173442 3.409902 4.239160 0.000000 0.000000 0.000000 -3.894294 1.311080 -1.879618 4.304677 -3.162511 22.227346 4.338027 6.460874 0.867026 -56.653124 -25.356579 23.483143 -23.854314 -46.593085 9.659841 0.000000 0.000000 0.000000 -3.553475 0.862312 -1.437617 -4.826105 -11.846233 -26.414063 -0.776360 -2.247504 -2.156707 -84.925848 34.754475 33.851063 -31.394271 43.765141 -4.147247 0.000000 0.000000 0.000000 
-28.448164 159.344040 39.173943 0.000000 0.000000 0.000000 5.113230 -15.643531 0.239063 -20.851584 7.689143 7.137862 28.851385 12.345301 5.042594 28.129815 -2.396434 2.369891 3.627319 0.817935 0.153080 0.000000 0.000000 0.000000 5.490196 -13.815709 -0.456212 -8.482193 -5.913116 -4.726498 17.403119 -12.936739 1.350168 35.313820 1.210454 -2.542821 11.357186 -1.416123 0.229783 0.000000 0.000000 0.000000 4.358435 -13.795837 -0.385220 0.538323 4.269544 4.626520 -5.544502 1.147142 -1.291209 2.619551 -2.901510 0.758360 0.000000 0.000000 0.000000 -1.627244 1.230132 -1.873082 -27.462046 1.478180 -1.329864 -7.698906 1.887297 4.333719 0.000000 0.000000 0.000000 -4.462855 1.153230 -1.452356 5.143272 -2.144220 24.448650 3.491443 4.865200 1.879638 -52.403291 -19.569296 19.463783 -20.350532 -50.786076 11.877654 0.000000 0.000000 0.000000 -4.267433 0.818894 -0.968817 -2.617042 -9.907965 -24.160703 -1.581341 -2.933342 -2.019583 -79.939066 39.353310 31.689373 -30.569840 39.599582 -0.159882 0.000000 0.000000 0.000000 
-28.847275 155.298752 40.523796 0.000000 0.000000 0.000000 3.973550 -14.343956 -0.405200 -23.202014 8.750139 7.836740 30.499571 12.527659 4.466491 32.743227 -2.358543 5.011799 4.917963 0.860026 -0.101833 0.000000 0.000000 0.000000 4.916829 -10.549271 -0.974188 -8.848805 -6.472821 -5.935270 20.250326 -11.024426 1.417041 40.019017 3.318608 0.015793 9.037259 -0.281816 0.100294 0.000000 0.000000 0.000000 2.566300 -12.072566 -0.935544 0.934767 4.333300 4.641290 -5.911096 0.995191 -0.862503 2.479272 -3.082246 0.743706 0.000000 0.000000 0.000000 -2.719370 1.147920 -1.280909 -26.788675 1.191132 -2.479734 -7.549827 0.461923 4.310974 0.000000 0.000000 0.000000 -5.042259 0.983881 -0.949862 5.491292 -0.045850 27.289906 2.435612 2.987227 2.547977 -49.680446 -16.792541 14.387080 -19.311595 -51.009683 12.281244 0.000000 0.000000 0.000000 -5.253357 0.755840 -0.415740 -0.692174 -7.301235 -23.878196 -1.816555 -3.193419 -1.578276 -75.571986 41.290444 28.503322 -29.416706 34.126473 2.493294 0.000000 0.000000 0.000000 
-29.200567 152.086517 42.244324 0.000000 0.000000 0.000000 3.065277 -13.170577 -0.917095 -24.364664 9.075835 7.811942 31.333547 13.016151 4.347821 34.924349 -1.688532 7.907420 6.310342 0.913269 -0.564549 0.000000 0.000000 0.000000 4.419997 -7.762702 -1.239180 -8.143034 -5.983974 -5.733405 20.465412 -10.468934 1.096626 42.388673 3.276772 0.859348 8.821213 0.539998 0.643520 0.000000 0.000000 0.000000 1.152631 -10.787465 -1.201129 1.041215 4.274632 4.530235 -6.359867 0.851922 -0.434997 1.810584 -2.773089 0.450417 0.000000 0.000000 0.000000 -3.926335 1.067913 -0.736284 -25.735104 1.053033 -3.687027 -6.786584 -0.672740 4.177780 0.000000 0.000000 0.000000 -5.651738 0.855116 -0.499077 5.448913 2.389754 30.381627 1.597337 1.377216 2.886560 -49.074694 -17.030826 9.588057 -21.095157 -47.585409 10.579027 0.000000 0.000000 0.000000 -6.370566 0.724501 0.111782 0.838727 -4.673868 -25.562770 -1.658402 -2.741603 -0.885090 -73.690733 40.860654 25.991305 -28.072641 28.650680 3.850432 0.000000 0.000000 0.000000 
-29.416815 150.110168 44.402359 0.000000 0.000000 0.000000 2.474645 -12.211650 -1.261765 -23.988680 8.755735 7.243803 31.518943 13.667258 4.673438 35.359039 -0.699167 9.817456 7.190384 0.989571 -1.093128 0.000000 0.000000 0.000000 3.817507 -5.851736 -1.316344 -6.822381 -4.998283 -4.534528 19.037402 -11.111688 0.574583 42.756585 1.425307 0.523279 9.212721 0.973221 1.407614 0.000000 0.000000 0.000000 0.253519 -9.910420 -1.153117 0.783887 4.105939 4.333668 -6.899658 0.740122 -0.130917 1.189714 -2.263008 0.065614 0.000000 0.000000 0.000000 -5.111965 0.968663 -0.343843 -24.298531 0.807180 -4.773571 -5.516574 -1.410186 3.957610 0.000000 0.000000 0.000000 -6.287048 0.811963 -0.252079 5.229115 4.508906 33.209087 1.258500 0.157992 2.720160 -50.590139 -19.847106 5.493723 -24.104607 -41.933902 8.033310 0.000000 0.000000 0.000000 -7.332269 0.751564 0.490859 1.965908 -2.660037 -28.736013 -1.462766 -1.757261 0.211237 -74.411742 39.033708 24.778524 -26.735941 24.480310 4.244304 0.000000 0.000000 0.000000 
-29.668106 149.220184 46.994461 0.000000 0.000000 0.000000 1.836132 -11.251546 -1.341934 -22.583351 8.285606 6.427472 31.095659 14.291006 5.231332 34.951704 0.033286 10.306774 6.947495 1.103220 -1.409098 0.000000 0.000000 0.000000 2.998743 -4.868100 -1.196839 -5.788547 -4.221716 -3.196012 18.086542 -12.236317 0.318548 43.225457 -0.729269 0.460591 7.641808 1.029436 1.907809 0.000000 0.000000 0.000000 -0.184348 -9.154487 -0.838197 0.285818 3.863999 4.099241 -7.493500 0.650277 0.013481 0.569556 -1.623505 -0.140172 0.000000 0.000000 0.000000 -6.181962 0.855704 -0.168313 -22.492207 0.415722 -5.582448 -3.886014 -1.737962 3.686657 0.000000 0.000000 0.000000 -6.931149 0.845867 -0.249134 5.068732 5.932673 35.306132 1.493285 -0.372973 2.074930 -53.260815 -23.792827 2.294527 -26.841807 -35.975966 5.786349 0.000000 0.000000 0.000000 -8.049032 0.845979 0.656026 2.648669 -1.541054 -32.561930 -1.156813 -0.328997 1.371223 -76.480968 36.647455 24.543506 -25.599283 22.579676 4.072063 0.000000 0.000000 0.000000 
-30.071152 149.136780 49.607399 0.000000 0.000000 0.000000 1.051985 -10.368074 -1.166758 -20.700417 8.518836 5.751358 30.313199 14.821090 5.731636 34.308669 0.347240 9.723978 5.972420 1.197616 -1.369407 0.000000 0.000000 0.000000 1.887300 -4.373429 -0.857262 -5.326266 -4.030116 -2.444648 17.878553 -12.621322 0.394281 44.478055 -1.213691 1.911586 4.213061 0.831898 1.837708 0.000000 0.000000 0.000000 -0.402755 -8.362641 -0.340091 -0.312997 3.560718 3.900742 -8.101749 0.565569 -0.010899 0.445693 -0.916126 -0.088935 0.000000 0.000000 0.000000 -7.072994 0.744158 -0.204318 -20.599342 -0.080568 -6.093490 -2.181714 -1.604341 3.338577 0.000000 0.000000 0.000000 -7.573746 0.927823 -0.471283 5.169395 6.520545 36.425969 2.681268 -0.229838 1.209732 -56.003129 -27.630636 -0.118885 -28.648866 -31.435987 4.145195 0.000000 0.000000 0.000000 -8.475643 0.989981 0.604306 2.989852 -1.225179 -36.113512 -0.825985 1.159103 2.422048 -78.286986 34.332335 24.795262 -24.612119 22.948732 3.630523 0.000000 0.000000 0.000000 
-30.581347 149.332733 52.246708 0.000000 0.000000 0.000000 0.080298 -9.565445 -0.836187 -19.041753 9.808001 5.333923 29.165420 15.375521 5.937155 33.622931 0.324941 8.633348 4.858500 1.240717 -0.978739 0.000000 0.000000 0.000000 0.638010 -4.177452 -0.505250 -5.284825 -4.550393 -2.294632 17.784684 -12.184889 0.613361 45.260573 -0.098289 3.909612 0.924065 0.594676 1.304391 0.000000 0.000000 0.000000 -0.726499 -7.661824 0.174757 -0.870477 3.195091 3.739365 -8.684050 0.474193 -0.137052 0.382227 -0.631987 0.181990 0.000000 0.000000 0.000000 -7.776972 0.626404 -0.365193 -18.737557 -0.516315 -6.321612 -0.599485 -1.056814 2.875772 0.000000 0.000000 0.000000 -8.167328 1.009616 -0.819392 5.574664 6.443101 36.623737 4.013581 0.491504 0.242079 -57.947086 -30.654470 -1.716255 -29.305121 -28.659655 3.188266 0.000000 0.000000 0.000000 -8.668851 1.121150 0.401971 3.067908 -1.516043 -38.808032 -0.395530 2.221322 3.118279 -78.770666 32.666934 24.986427 -23.806083 24.792569 3.050205 0.000000 0.000000 0.000000 
